HIERARCHY
ROOT Hips
{
	OFFSET 0.000000 0.000000 0.000000
	CHANNELS 6 Xposition Yposition Zposition Xrotation Yrotation Zrotation
	JOINT LeftUpLeg_virtual
	{
		OFFSET 0.000000 0.000000 0.000000
		CHANNELS 3 Xrotation Yrotation Zrotation
		JOINT LeftUpLeg
		{
			OFFSET 10.205400 -3.823500 0.155100
			CHANNELS 3 Xrotation Yrotation Zrotation
			JOINT LeftLeg
			{
				OFFSET 0.708757 -12.982077 0.567790
				CHANNELS 3 Xrotation Yrotation Zrotation
				JOINT LeftFoot
				{
					OFFSET -0.708756 -10.717838 -2.184338
					CHANNELS 3 Xrotation Yrotation Zrotation
					JOINT LeftToeBase
					{
						OFFSET 0.108149 -7.191104 7.560241
						CHANNELS 3 Xrotation Yrotation Zrotation
						JOINT LeftToe_End
						{
							OFFSET 0.070230 0.081724 4.490308
							CHANNELS 3 Xrotation Yrotation Zrotation
							End Site
							{
								OFFSET 0 0 0
							}
						}
					}
				}
			}
		}
	}
	JOINT RightUpLeg_virtual
	{
		OFFSET 0.000000 0.000000 0.000000
		CHANNELS 3 Xrotation Yrotation Zrotation
		JOINT RightUpLeg
		{
			OFFSET -10.205400 -3.823500 0.005500
			CHANNELS 3 Xrotation Yrotation Zrotation
			JOINT RightLeg
			{
				OFFSET -0.708756 -12.982134 0.610632
				CHANNELS 3 Xrotation Yrotation Zrotation
				JOINT RightFoot
				{
					OFFSET 0.708754 -10.717769 -1.945823
					CHANNELS 3 Xrotation Yrotation Zrotation
					JOINT RightToeBase
					{
						OFFSET -0.108140 -7.191069 7.372968
						CHANNELS 3 Xrotation Yrotation Zrotation
						JOINT RightToe_End
						{
							OFFSET -0.070227 0.081735 4.479403
							CHANNELS 3 Xrotation Yrotation Zrotation
							End Site
							{
								OFFSET 0 0 0
							}
						}
					}
				}
			}
		}
	}
	JOINT Spine_virtual
	{
		OFFSET 0.000000 0.000000 0.000000
		CHANNELS 3 Xrotation Yrotation Zrotation
		JOINT Spine
		{
			OFFSET 0.000000 6.876099 0.125700
			CHANNELS 3 Xrotation Yrotation Zrotation
			JOINT Spine1
			{
				OFFSET 0.000000 5.730043 0.104720
				CHANNELS 3 Xrotation Yrotation Zrotation
				JOINT Spine1_split
				{
					OFFSET 0.000000 5.730043 0.104720
					CHANNELS 3 Xrotation Yrotation Zrotation
					JOINT Spine2
					{
						OFFSET 0.000000 5.730043 0.104720
						CHANNELS 3 Xrotation Yrotation Zrotation
						JOINT Neck_virtual
						{
							OFFSET 0.000000 0.000000 0.000000
							CHANNELS 3 Xrotation Yrotation Zrotation
							JOINT Neck
							{
								OFFSET 0.000000 10.314075 0.188496
								CHANNELS 3 Xrotation Yrotation Zrotation
								JOINT Head
								{
									OFFSET 0.000000 7.643700 -2.377400
									CHANNELS 3 Xrotation Yrotation Zrotation
									JOINT HeadTop_End
									{
										OFFSET 0.000000 43.788605 -13.619600
										CHANNELS 3 Xrotation Yrotation Zrotation
										End Site
										{
											OFFSET 0 0 0
										}
									}
								}
							}
						}
						JOINT LeftShoulder_virtual
						{
							OFFSET 0.000000 0.000000 0.000000
							CHANNELS 3 Xrotation Yrotation Zrotation
							JOINT LeftShoulder
							{
								OFFSET 2.196100 4.412489 0.087492
								CHANNELS 3 Xrotation Yrotation Zrotation
								JOINT LeftShoulder_split
								{
									OFFSET 2.196100 4.412489 0.087492
									CHANNELS 3 Xrotation Yrotation Zrotation
									JOINT LeftArm
									{
										OFFSET 8.771219 -2.981674 -0.026999
										CHANNELS 3 Xrotation Yrotation Zrotation
										JOINT LeftForeArm
										{
											OFFSET 8.512804 0.000000 -0.000000
											CHANNELS 3 Xrotation Yrotation Zrotation
											JOINT LeftHand
											{
												OFFSET 18.484802 0.000000 -0.000000
												CHANNELS 3 Xrotation Yrotation Zrotation
												End Site
												{
													OFFSET 0 0 0
												}
											}
										}
									}
								}
							}
						}
						JOINT RightShoulder_virtual
						{
							OFFSET 0.000000 0.000000 0.000000
							CHANNELS 3 Xrotation Yrotation Zrotation
							JOINT RightShoulder
							{
								OFFSET -2.196100 4.412496 0.070690
								CHANNELS 3 Xrotation Yrotation Zrotation
								JOINT RightShoulder_split
								{
									OFFSET -2.196100 4.412496 0.070690
									CHANNELS 3 Xrotation Yrotation Zrotation
									JOINT RightArm
									{
										OFFSET -8.771282 -2.981682 -0.094208
										CHANNELS 3 Xrotation Yrotation Zrotation
										JOINT RightForeArm
										{
											OFFSET -8.494598 0.000000 0.000000
											CHANNELS 3 Xrotation Yrotation Zrotation
											JOINT RightHand
											{
												OFFSET -18.483803 0.000000 0.000001
												CHANNELS 3 Xrotation Yrotation Zrotation
												End Site
												{
													OFFSET 0 0 0
												}
											}
										}
									}
								}
							}
						}
					}
				}
			}
		}
	}
}
MOTION
Frames: 9
Frame Time: 0.03333333
-43.038086 27.235594 -3.400459 0.000000 0.000000 0.000000 16.621358 -61.517984 16.356345 -56.550452 -16.785786 12.264799 48.794076 -4.654644 -3.655171 7.905879 4.687501 -24.478565 -0.765858 -0.576215 0.998691 0.000000 0.000000 0.000000 16.194676 -60.645960 16.652795 -46.242426 -0.450274 -15.960743 86.706909 11.998302 -8.250594 -15.234223 2.445367 32.075204 -11.374934 3.741754 -24.736027 0.000000 0.000000 0.000000 15.915568 -58.007198 13.927553 15.216026 3.537523 -6.727598 16.349933 3.985837 -5.138899 0.559183 -1.590051 0.998369 0.000000 0.000000 0.000000 16.547419 4.290610 -5.156660 -10.245619 14.678961 7.216054 -12.463102 15.461235 0.125309 0.000000 0.000000 0.000000 17.482067 3.574980 -4.860407 -0.656477 -9.436375 11.382092 -2.544125 -3.480203 -5.027050 -32.651193 17.537843 -21.770407 0.008589 -67.978578 -1.665034 0.000000 0.000000 0.000000 16.006632 3.941956 -4.739851 -1.785276 12.730863 16.844754 2.994983 3.516998 -0.308996 -43.749708 -1.836660 42.623382 -42.501023 71.021263 38.870323 0.000000 0.000000 0.000000 
-44.440948 26.996952 -3.309996 0.000000 0.000000 0.000000 11.767729 -62.147331 11.227167 -52.089744 -19.518056 15.561912 54.599402 -6.845214 -4.181268 2.697462 5.363622 -22.501314 1.632967 -0.457088 0.148402 0.000000 0.000000 0.000000 11.636604 -61.905577 11.911928 -47.554198 1.459149 -18.320623 85.821395 10.906703 -7.496075 -13.470900 0.797309 27.512338 -4.997609 1.972819 -18.201957 0.000000 0.000000 0.000000 14.241697 -60.254385 11.512148 15.708767 3.270959 -6.725952 15.956251 3.092374 -5.630010 0.751202 -1.415067 0.845669 0.000000 0.000000 0.000000 16.184015 3.198896 -5.713066 -12.882593 16.623816 6.416275 -13.252080 18.262145 0.811448 0.000000 0.000000 0.000000 17.235750 2.610289 -5.421096 -0.849005 -10.196497 10.128381 -3.910197 -4.504145 -6.370538 -35.053644 17.243130 -20.296930 -0.180028 -68.854898 -0.915178 0.000000 0.000000 0.000000 15.716694 2.928097 -5.372669 -2.192190 12.678154 15.336614 3.316003 4.521911 0.296031 -42.640188 -2.799412 44.085442 -41.087269 71.814412 37.393605 0.000000 0.000000 0.000000 
-45.847885 27.055290 -3.213032 0.000000 0.000000 0.000000 7.467934 -61.602439 6.691665 -46.462963 -21.331470 18.207763 56.390458 -7.945818 -4.412439 -5.161680 6.362053 -19.634478 3.903013 -0.336117 -0.712376 0.000000 0.000000 0.000000 7.574762 -61.729078 7.733564 -46.569063 4.085128 -20.116806 80.094903 8.487480 -6.801926 -13.920104 -2.639655 21.249524 1.945559 0.272445 -9.133348 0.000000 0.000000 0.000000 11.884350 -61.774089 8.818623 15.856161 2.974117 -6.398240 15.431405 2.386354 -5.989781 0.861536 -0.928919 0.655071 0.000000 0.000000 0.000000 15.628101 2.382484 -6.150450 -15.061339 18.655492 5.738749 -12.699978 21.312045 1.247247 0.000000 0.000000 0.000000 16.748990 1.889854 -5.812024 -1.361859 -11.263242 7.446738 -4.694700 -4.870795 -7.277692 -35.817174 16.581486 -21.176624 0.511571 -70.840338 0.472896 0.000000 0.000000 0.000000 15.347143 2.164638 -5.791945 -2.504687 12.706303 13.570990 3.693828 5.232549 0.893818 -41.416850 -4.277831 44.534275 -41.118552 73.534834 37.485530 0.000000 0.000000 0.000000 
-47.123726 27.201210 -3.106211 0.000000 0.000000 0.000000 4.586488 -60.802610 3.563490 -41.103409 -21.903438 20.338058 55.548033 -8.824378 -4.745903 -12.984834 6.025116 -16.926718 2.840878 -0.287062 -0.843218 0.000000 0.000000 0.000000 4.178389 -61.043491 4.314546 -44.161210 6.382520 -21.677929 72.337652 6.163536 -7.103805 -15.175543 -5.663752 16.963437 6.485774 -0.737470 -0.692385 0.000000 0.000000 0.000000 9.374185 -62.522718 6.347635 15.591679 2.740593 -5.894697 14.778463 1.884557 -6.250025 0.687305 -0.799030 0.364760 0.000000 0.000000 0.000000 14.975840 1.868807 -6.436331 -16.551971 20.524666 5.056860 -10.893670 24.181743 1.378026 0.000000 0.000000 0.000000 16.055649 1.443438 -6.061476 -2.185437 -12.466042 3.650012 -4.908326 -4.332249 -7.036356 -34.173588 15.532943 -23.522572 1.765020 -72.717240 2.059040 0.000000 0.000000 0.000000 14.878826 1.671014 -6.006845 -2.680297 12.702130 11.794473 4.098543 5.483965 1.324634 -40.318754 -6.677862 44.147252 -46.579182 76.899051 43.122191 0.000000 0.000000 0.000000 
-48.257744 27.286715 -2.861607 0.000000 0.000000 0.000000 2.951737 -59.903539 1.794551 -37.880875 -20.990471 22.151710 54.772807 -9.825654 -5.412519 -18.461351 3.845996 -14.110062 -0.383083 -0.290771 -0.444872 0.000000 0.000000 0.000000 1.688610 -60.253197 2.003409 -41.412499 7.105338 -23.226239 66.067136 5.154521 -8.307107 -16.367893 -7.255163 17.029666 7.468662 -1.574396 4.480338 0.000000 0.000000 0.000000 6.917464 -62.231547 4.299131 14.989566 2.599106 -5.270823 14.060826 1.559865 -6.429970 0.349854 -1.202203 0.394546 0.000000 0.000000 0.000000 14.285841 1.603419 -6.600165 -17.478562 22.113062 4.379350 -8.245625 26.393197 1.273737 0.000000 0.000000 0.000000 15.311081 1.176028 -6.228080 -3.210831 -13.763809 -0.582191 -4.847766 -2.870736 -6.201462 -30.679372 13.699184 -26.351645 2.339380 -72.593901 2.741595 0.000000 0.000000 0.000000 14.342537 1.403076 -6.068390 -2.688902 12.632736 10.125275 4.399512 5.428946 1.363667 -39.918839 -9.839158 43.120432 -64.532112 80.896228 61.338316 0.000000 0.000000 0.000000 
-49.198906 27.164066 -2.639135 0.000000 0.000000 0.000000 1.813980 -59.310685 0.748378 -37.544655 -18.918391 23.995194 56.027171 -11.253304 -6.407898 -20.217155 0.297042 -11.299325 -2.809716 -0.271785 0.034560 0.000000 0.000000 0.000000 -0.337805 -59.633125 0.223080 -38.786131 5.917619 -24.482396 62.546248 5.770385 -9.936246 -18.679408 -7.181219 20.567479 6.557496 -2.518748 5.514409 0.000000 0.000000 0.000000 4.551329 -61.477631 2.591149 14.245084 2.634975 -4.546485 13.384865 1.337892 -6.568902 0.610560 -2.108753 0.458479 0.000000 0.000000 0.000000 13.685778 1.489636 -6.701167 -18.115017 23.287216 3.745196 -5.484931 27.808389 1.067694 0.000000 0.000000 0.000000 14.644361 0.981374 -6.368190 -4.335951 -14.881784 -4.748429 -4.603040 -1.239555 -4.911096 -26.198336 11.073372 -28.932750 1.727655 -69.806446 2.096407 0.000000 0.000000 0.000000 13.774037 1.295089 -6.049370 -2.603949 12.542613 8.666438 4.665833 5.418039 1.061857 -40.734538 -13.138139 41.606651 -100.113580 82.751321 97.178818 0.000000 0.000000 0.000000 
-49.921539 26.924105 -2.352102 0.000000 0.000000 0.000000 1.022251 -59.224673 0.147582 -39.487424 -16.259774 25.945052 59.061185 -12.745200 -7.680154 -19.435665 -3.114057 -8.063808 -2.793079 -0.029222 0.108979 0.000000 0.000000 0.000000 -2.161076 -59.122172 -1.285881 -36.486676 2.936959 -25.416225 62.391777 6.583636 -11.122381 -22.266386 -6.254019 24.270954 4.947290 -3.441691 3.391447 0.000000 0.000000 0.000000 2.789550 -60.281119 1.484920 13.496969 2.845049 -3.725970 12.835268 1.138713 -6.679884 0.821230 -2.735236 0.627977 0.000000 0.000000 0.000000 13.244790 1.374919 -6.762459 -18.757699 24.000595 3.211030 -3.141608 28.372759 0.928376 0.000000 0.000000 0.000000 14.144286 0.794902 -6.500176 -5.398336 -15.643363 -8.350626 -4.808772 -0.100205 -3.441957 -21.294838 7.775580 -30.941645 1.151841 -64.854552 1.268522 0.000000 0.000000 0.000000 13.265258 1.239737 -6.009599 -2.541658 12.442717 7.444642 4.605190 5.413894 0.668533 -42.594641 -15.719315 39.675070 -128.393063 81.899282 125.689223 0.000000 0.000000 0.000000 
-50.529701 26.749725 -2.052572 0.000000 0.000000 0.000000 0.365525 -59.091491 -0.142527 -41.836736 -13.381210 27.584069 62.116493 -13.457056 -8.831072 -18.252325 -5.023493 -4.367968 0.056898 0.500602 -0.632218 0.000000 0.000000 0.000000 -3.254513 -58.614778 -1.990624 -34.793421 -0.749221 -26.024274 63.829135 6.667385 -11.585103 -26.590719 -5.439108 26.156554 3.474353 -4.273078 -0.198725 0.000000 0.000000 0.000000 1.510748 -58.852783 0.872254 12.944076 3.088901 -2.864403 12.445349 0.899150 -6.752789 0.874980 -3.083159 0.899122 0.000000 0.000000 0.000000 12.964629 1.189495 -6.818934 -19.460432 24.335196 2.793396 -1.580549 28.019326 0.999160 0.000000 0.000000 0.000000 13.809364 0.550430 -6.603791 -6.268585 -15.921086 -11.015614 -5.265556 0.513732 -2.471314 -17.085160 4.310223 -32.680871 1.078678 -58.843295 0.824604 0.000000 0.000000 0.000000 12.865116 1.135716 -5.973812 -2.567731 12.265595 6.537551 4.268192 5.200649 0.474922 -44.946077 -17.080906 37.558722 -139.442178 80.873422 136.936933 0.000000 0.000000 0.000000 
-51.010269 26.772692 -1.864408 0.000000 0.000000 0.000000 -0.264640 -59.018927 -0.172682 -42.609128 -10.390016 28.560195 63.210102 -13.434378 -9.652645 -17.732433 -5.494181 -2.005173 2.828355 1.107737 -1.395398 0.000000 0.000000 0.000000 -3.805767 -57.989501 -2.058104 -33.525417 -3.742815 -26.438305 64.463660 6.009706 -11.453097 -29.894672 -4.724280 26.092429 2.172620 -5.127939 -3.393002 0.000000 0.000000 0.000000 0.668059 -57.440511 0.781625 12.674035 3.224687 -2.102553 12.186306 0.609755 -6.787096 1.039219 -3.216489 1.130536 0.000000 0.000000 0.000000 12.811617 0.903479 -6.838508 -20.106272 24.387124 2.399053 -0.786259 26.930845 1.226885 0.000000 0.000000 0.000000 13.566252 0.241545 -6.660961 -6.880378 -15.665179 -12.630642 -5.739969 0.658906 -1.892333 -14.125473 1.328824 -34.489993 1.658273 -53.080521 0.872713 0.000000 0.000000 0.000000 12.609688 0.935266 -5.947361 -2.754837 11.990971 5.949158 3.958945 4.716541 0.515549 -46.939068 -17.279993 35.542706 -141.952532 80.561098 139.644351 0.000000 0.000000 0.000000 
